# xmcd
#
# Track frame offsets: 
#        150
#        21007
#        39874
#        57430
#        72466
#        87773
#        102794
#        122525
#
# Disc length: 1870 seconds
#
# Revision: 0
# Processed by: cddbd v1.5.2PL0 Copyright (c) Steve Scherf et al.
# Submitted via: ExactAudioCopy v1.3
#
DISCID=5d074c08
DTITLE=The Black Sorrows - Crooked Little Thoughts [disk 1]
DYEAR=2012
DGENRE=Blues Rock
TTITLE0=Money Talkin
TTITLE1=Our Town
TTITLE2=Shelley
TTITLE3=Lovin You
TTITLE4=Waitin For The Hammer
TTITLE5=Salvation Song
TTITLE6=Lost In Wonder
TTITLE7=Somewhere In This World
EXTD=
EXTT0=
EXTT1=
EXTT2=
EXTT3=
EXTT4=
EXTT5=
EXTT6=
EXTT7=
PLAYORDER=
